<svg width="512" height="512" viewBox="0 0 512 512" fill="none" xmlns="http://www.w3.org/2000/svg">
<path d="M256 12.8C207.9 12.8 160.879 27.0634 120.885 53.7866C80.8912 80.5097 49.7196 118.492 31.3124 162.931C12.9052 207.37 8.08901 256.27 17.4729 303.446C26.8569 350.622 50.0194 393.956 84.0315 427.968C118.044 461.98 161.378 485.143 208.554 494.527C255.73 503.911 304.63 499.095 349.069 480.687C393.507 462.28 431.49 431.109 458.213 391.115C484.936 351.121 499.2 304.1 499.2 256C499.132 191.52 473.488 129.701 427.893 84.1065C382.299 38.5123 320.48 12.8678 256 12.8ZM243.2 102.4C248.243 102.4 253.236 103.393 257.895 105.323C262.554 107.253 266.787 110.081 270.353 113.647C273.919 117.213 276.747 121.446 278.677 126.105C280.607 130.764 281.6 135.757 281.6 140.8C281.6 145.843 280.607 150.836 278.677 155.495C276.747 160.154 273.919 164.387 270.353 167.953C266.787 171.519 262.554 174.347 257.895 176.277C253.236 178.207 248.243 179.2 243.2 179.2C233.016 179.2 223.248 175.154 216.047 167.953C208.846 160.751 204.8 150.984 204.8 140.8C204.8 130.616 208.846 120.848 216.047 113.647C223.248 106.446 233.016 102.4 243.2 102.4ZM307.2 384H204.8C198.01 384 191.499 381.303 186.698 376.502C181.897 371.701 179.2 365.19 179.2 358.4C179.2 351.61 181.897 345.099 186.698 340.298C191.499 335.497 198.01 332.8 204.8 332.8H230.4V256H204.8C198.01 256 191.499 253.303 186.698 248.502C181.897 243.701 179.2 237.19 179.2 230.4C179.2 223.61 181.897 217.099 186.698 212.298C191.499 207.497 198.01 204.8 204.8 204.8H256C262.789 204.8 269.301 207.497 274.102 212.298C278.903 217.099 281.6 223.61 281.6 230.4V332.8H307.2C313.989 332.8 320.501 335.497 325.302 340.298C330.103 345.099 332.8 351.61 332.8 358.4C332.8 365.19 330.103 371.701 325.302 376.502C320.501 381.303 313.989 384 307.2 384Z" fill="white"/>
</svg>
